<svg id="Capa_1" enable-background="new 0 0 512 512" height="512" viewBox="0 0 512 512" width="512" xmlns="http://www.w3.org/2000/svg"><g><path d="m256 179.687c-42.039 0-76.241 34.234-76.241 76.313s34.202 76.313 76.241 76.313 76.241-34.234 76.241-76.313-34.202-76.313-76.241-76.313zm0 121.313c-24.8 0-44.977-20.187-44.977-45s20.177-45 44.977-45 44.977 20.187 44.977 45-20.177 45-44.977 45z"/><path d="m493.59 160.32c-8.6 28.91-35.42 50.05-67.08 50.05-38.58 0-69.97-31.4-69.97-70 0-31.64 21.09-58.45 49.95-67.08v-24.46c-43.46-31.71-95.66-48.83-150.49-48.83-68.38 0-132.67 26.63-181.02 74.98s-74.98 112.64-74.98 181.02 26.63 132.67 74.98 181.02 112.64 74.98 181.02 74.98 132.67-26.63 181.02-74.98 74.98-112.64 74.98-181.02c0-33.32-6.33-65.67-18.41-95.68zm-237.59 285.37c-104.59 0-189.69-85.1-189.69-189.69h30c0 88.05 71.64 159.69 159.69 159.69zm0-83.38c-58.58 0-106.24-47.69-106.24-106.31s47.66-106.31 106.24-106.31 106.24 47.69 106.24 106.31-47.66 106.31-106.24 106.31z"/><ellipse cx="256" cy="256" rx="14.977" ry="15"/><path d="m386.247 140.371c0 22.058 17.933 40.003 39.977 40.003s39.977-17.946 39.977-40.003v-110.371h32.512v-30h-62.513v101.628c-3.19-.823-6.533-1.261-9.977-1.261-22.043 0-39.976 17.946-39.976 40.004z"/></g></svg>