<?xml version="1.0" encoding="utf-8"?>
<!-- Generator: Adobe Illustrator 21.1.0, SVG Export Plug-In . SVG Version: 6.00 Build 0)  -->
<svg version="1.1" id="Слой_1" xmlns="http://www.w3.org/2000/svg" xmlns:xlink="http://www.w3.org/1999/xlink" x="0px" y="0px"
	 viewBox="0 0 160 50" style="enable-background:new 0 0 160 50;" xml:space="preserve">
<style type="text/css">
	.st0{fill:#E94E24;}
	.st1{fill:#1D1D1B;}
</style>
<title>Ресурс 4</title>
<path class="st0" d="M152.6,33.8c-0.4-0.2-0.8-0.4-1.3-0.5c-0.3-0.1-0.7-0.2-1-0.3c-0.3-0.1-0.6-0.2-0.9-0.3c-1.3-0.5,0.1-1,0.1-1
	c1.9-0.7-7.2-1.8-10.4-2c-0.7,0-1.5,0.2-2.6,0l-1.5-0.2c-1-0.2,0.1,0.6-0.7,0.5c-1.1-0.2-3-0.4-4.5-0.6c-1.5-0.1-3.7-0.6-2.7,0.2
	c-1.9-0.1-2.2,0.2-4.2,0.1c-1.3,0-2.7,0-4.3-0.1s-3.2,0-4.8-0.1c-1.7,0-3.4,0-5.1,0l-1.8,0c-6.4,0.1-11.9,0.1-17.4,0.4
	c-5.7,0.2-11.4,0.8-17.1,1.6c-6.2,0.9-12.5,1.9-18.6,3c-6.1,1.1-12,2.4-17.2,3.7l-3.8,1c-1.2,0.3-2.4,0.7-3.6,1l-1.7,0.5
	c-0.5,0.2-1.1,0.3-1.6,0.5L23.2,42c-1.8,0.6-3.1,1.3-4.4,1.8c-1.1,0.5-2.2,0.9-3.4,1.1c-2.4,0.6-1.6,0.9-1.6,0.9
	c1.3,0.9,2.5-0.8,4.3-1.5l2.9-1.1l1.6-0.6c0.5-0.2,1.1-0.4,1.6-0.5c1.1-0.4,9.6-2.6,10.2-2.8c1.3-0.3,2.5-0.5,3.6-0.7l4.5-1.1
	c27.4-5.8,28.9-5.4,29.8-5.5c2.7,0.1-0.3,0.9-1.1,0.9c-0.8,0.1-2,0.2-3.3,0.4l-4.7,0.6l-5.4,0.8c-1.8,0.3-3.7,0.6-5.4,0.9
	s-2.7,0.6-0.8,0.3l1.4-0.3c0.5-0.1,0.9-0.1,1.4-0.2c1.7-0.3,2.8-0.2,1.7,0c-1.1,0.2-2.3,0.4-3.6,0.6c-1.5,0.3-3.5,0.4-5,0.7
	c-1.2,0.3-2.4,0.4-3.6,0.6l-1.1,0.2l-1.1,0.3c-0.2,0.1-0.5,0.1-0.7,0.2h0c0.5,0,1-0.1,1.5-0.2c0.7-0.1,1.7-0.2,2.7-0.4l1.7-0.3
	l0.9-0.2l0.9-0.1l4-0.6c2.7-0.4,5.5-0.8,7.8-1.1l3-0.4c0.8-0.1,1.5-0.2,1.9-0.3c1.3-0.2,2.5-0.5,3.7-0.7c1.3-0.3,2.5-0.5,4-0.7
	c1-0.1,7.9-0.8,8.6-0.9c1.6-0.1,1.1,0.3,2,0.4c0.9,0.1,1.3-0.2,2.2,0c1.3,0.3,0.2-0.2,2.6-0.3c0.3,0,1.2-0.3,1.8-0.3
	c2,0.1,2.6-0.2,4.9-0.4c1.2-0.1,2.5-0.2,3.7-0.2c1.2,0,2.3-0.1,3.4-0.3c0.2,0,5.1-0.4,5.1-0.4c3.7,0,7.5,0.5,8.9,0.3
	c1.4-0.3,3.6-0.1,5.6,0c2,0.1,4,0.3,5.7,0.4c0.9,0,1.6,0.1,2.3,0.2s1.3,0.2,1.9,0.3c0.6,0.1,1.2,0.2,1.8,0.3s1.3,0.3,2.1,0.4
	c0.7,0.1,1.4,0.2,2,0.3c1.2,0.3,4.2-0.7,2.6,0.2l-0.2,0.2c-0.5,0.3,0.9,0.2,1.2,0.2s0.2,0.1,0.1,0.2c-0.2,0.1-0.6,0.2,0.2,0.3
	c0.8,0.1,7,1.2,7.3,1.3c0.6,0.1-0.1-0.3,0.4-0.3c0.4,0,1.3,0.1,1.7,0.2C152.4,35.5,153.1,34.3,152.6,33.8z"/>
<path class="st0" d="M122.5,33c-3.4,0-6.8,0.2-10.7,0.3l-1.1,0c-1,0.1-2.1,0.1-3.2,0.2c-1,0.1-2,0.1-2.9,0.2
	c-0.9,0.1-1.8,0.1-2.6,0.2c-1.2,0.1-6.8,0.1-7.4,0.3l-0.9,0.2c-0.7,0.1-1.2,0-1.6,0.1c-9.8,1.4-8.5,3.2-7.5,3.6
	c0.4,0.3,1.1,0.2,1.3,0.1c0.3,0-0.1,0.2,0.3,0.2c0.2,0,4-0.9,4.5-1s0.2-0.2,0.1-0.2c-0.1,0-0.1-0.1,0.1-0.1c0.2,0,1.5-0.2,2.2-0.4
	c0.4-0.1,0.8-0.2,1.2-0.3c0.5-0.1,0.9-0.2,1.2-0.3c0.4-0.1,0.7-0.2,1.1-0.3s0.7-0.2,1.2-0.2c0.4-0.1,0.9-0.1,1.4-0.2
	c1.1-0.1,2.3-0.3,3.5-0.4c1.2-0.1,2.6-0.3,3.4-0.2c0.9,0.1,3.2-0.3,5.5-0.5c0,0,3,0.1,3.2,0.1c0.7,0.1,1.4,0.1,2.1,0
	c0.8,0,1.5-0.1,2.3,0c1.4,0,1.8,0.2,3,0.1c0.4,0,0.8,0.1,1.1,0.1c1.5,0,0.8,0.3,1.6,0.1c0.6-0.1,0.9,0.3,1.3,0
	C128.6,33,122.5,33,122.5,33z"/>
<path class="st0" d="M145.4,37.1c-1.8-0.2-1.3-0.7-2.3-0.9c-1-0.2-2.2-0.2-3.6-0.4l-2.2-0.4c-0.4-0.1-0.8-0.1-1.2-0.2l-1.2-0.2
	c-0.8-0.1-1.7-0.3-2.6-0.4c-0.9-0.1-1.7,0-2.7-0.1c0,0-5,0.1,1.6,0.4c0.5,0,6.7,0.9,7.5,1c0.4,0.1,0.8,0.1,1.2,0.2l1.2,0.3l2.2,0.5
	c1.3,0.3,2.3,1.5,3.2,0.7C146.6,37.6,147.1,37.3,145.4,37.1z"/>
<path class="st1" d="M144.8,11.5c0.3-0.9,0.1-1.9-0.9-1.5c-1.6,0.7-2.1,0.1-2.4,1.6C140.7,14.9,144.1,13.5,144.8,11.5z"/>
<path class="st1" d="M77.2,24.9c-0.7,0-0.5-1.2-0.3-2c0.4-1.6,0.9-3.2,1.4-4.8c0.2-0.7,0.2-1.1-0.6-1.2c-0.2,0-0.4,0-0.6-0.1
	c-1-0.7-1-0.8-1.5,0.3c-0.1,0.2-0.2,0.4-0.3,0.7c-2-2.5-4.5-0.2-5.6,1.9c-0.3,0.5-0.5,1-0.7,1.6l0,0c-0.9,2.5-2.9,5.5-4.2,5.2
	c-1.2-0.3-0.7-2.8,0.2-4.2c0.1-0.2,0.3-0.5,0.5-0.6c0.5-0.3,0.9-0.8,1.1-1.3c0.4-0.9-0.3-1.4-1-1.9c-0.5-0.3-0.9-0.3-1.3-0.1
	c-0.2,0.2-0.4,0.3-0.6,0.5c0,0-0.1,0.1-0.1,0.1c-1,0.2-2.7-0.4-3.5-0.6c-0.8-0.2-0.8,0.1-0.8,0.5c-0.1,0.5,0.5,1.9,0.9,2.2
	s1.7,0.2,2.6,0.4c-0.6,1.1-1,2.3-1,3.6c0,2.6,1.7,3.7,3.1,3.1c1.3-0.5,2.4-1.4,3.1-2.6c0.1,1.6,1.3,2.5,2.9,1.9
	c1.2-0.4,2.1-1.2,3.3-2.2c0.1,0.8,0.8,1.2,1.2,1.4c1.2,0.5,2.1,0.2,2.6-0.2c0.9-0.9,1.5-0.6,1.9-1.5C80.4,24.4,79.2,25.2,77.2,24.9z
	 M74,23.3c-0.3,0.9-1.1,1.7-2,2c-1.3,0.6-1.5-0.4-1.4-1.8c0.1-2.5,1.8-5.9,3.6-5.1C75.3,19.3,74.6,21.5,74,23.3L74,23.3z"/>
<path class="st1" d="M40.4,22.5c-0.5,0.6-2.5,8-3.8,8.1s-1.6-3.9-1-5c0.5-0.9,1.6-1.5,0.4-2.4c-0.5-0.4-1.2-0.6-2.2-0.3
	c-1.4,0.4-1.7,1.5-1.7,2.4c-0.1,2.9,0.1,5.7,1.8,7.9c1,1.3,2.9,1.1,3.9-0.6c1-1.7,2.8-4.8,3.5-6.5C42.3,24,41.2,21.4,40.4,22.5z"/>
<path class="st1" d="M126,21.2c-0.9-1-2.8-4.7-3.5-5.9c-0.4-0.7-1-0.8-1.7-0.2c-1,0.9-1.7,2.3-2.5,3.8c-0.5,0.9-1.1-0.4,0-2.4
	c0.9-1.6,1.4-1.8,1.1-2.2c-0.3-0.4-1-0.6-1.6-0.7c-0.8-0.1-1.3,0.6-1.5,1.2c-0.8,2.1-1,4.4-0.5,6.5c0.4,1.7,1.3,1.8,2.2,0.9
	s2.1-4.7,3.2-5c1.1-0.3,1.6,3.5,2.4,5.5c0.7,1.6,2.9,1.4,3.9,0.6C128.2,22.7,127.2,22.5,126,21.2z"/>
<path class="st1" d="M147.7,19.4c-1-1.3-1.5-1.7,0.4-2.7c1.7-0.8,0.7-2.1-0.7-1.5c-0.5,0.2-0.9,0.2-1.3,0.8
	c-0.8,1.1-1.9,1.9-3.1,2.4c-0.7,0.3-1.8,2.2-0.8,1.8c1-0.4,2.7-1.9,2.9-1.3c0.9,2.4,0,4.6-2.4,4.9c-0.8,0.1-1.6-0.2-1,0.2
	c0.4,0.3,0.5,0.7,0.9,0.8c1.1,0.2,2.2,0.2,3.3,0.1c3.1-0.3,4.1-2.8,2.1-5.2C147.9,19.7,147.8,19.5,147.7,19.4z"/>
<path class="st1" d="M28.4,21.1c0.3-0.5,0.7-1.3-0.2-2c-0.5-0.4-2-0.7-2.3,1.3c-0.1,0.8-0.3,2.1,0.1,2.5
	C26.4,23.5,27.9,22,28.4,21.1z"/>
<path class="st1" d="M47.1,29c-0.4-1.6-0.6-3.3-0.1-4.7c0.2-0.6,0.4-1.3,0.4-2c0-1.2-1-0.6-2.1-1.3c-0.9-0.6-1.4,0.6-1.5,2.1
	c-0.2,2.3,0.3,4.6,1.6,6.6c0.9,1.4,2.5,2.5,2.3,1.1C47.6,30.3,47.2,29.3,47.1,29z"/>
<path class="st1" d="M48.3,15.3c-0.3-0.9-1.9,0.5-2.4,1.3c-0.3,0.5-1.1,1.4,0.1,2.1c0.5,0.3,2.6,0.2,3-1.9
	C49.1,16,48.5,16.2,48.3,15.3z"/>
<path class="st1" d="M139,15.4c-0.8-0.5-1.3-0.2-1.7,0.4c-0.9,1.4-1.5,3-1.8,4.6c-0.9,2-2.3,2.5-3.3,2.3c-2.4-0.7,1.9-5.2,2.2-5.7
	c0.5-0.8-0.2-1.3-0.8-1.8c-0.4-0.3-1.1,0.9-5.2-0.4c-0.7-0.2-1.1-0.2-1.2,0.1c-0.1,0.5,0.7,2,1.1,2.3c0.4,0.3,1.7,0.3,2.5,0.6
	c-0.7,0.9-1.1,2-1.1,3.2c0,2.4,1.8,3.1,3.3,2.8c0.9-0.2,1.7-0.6,2.4-1.2c0.1,1.3,0.8,1.6,2.1,1.1c1-0.4,0.9-1,0.2-0.9
	c-0.7,0.2-0.6-0.3-0.6-0.4c0.1-1.5,0.8-2.9,1.8-3.9c0.6-0.6,1.4-1.5,1.7-2.1C141,15.7,139.8,15.8,139,15.4z"/>
<path class="st1" d="M29.6,35.5c1.3-1.5-0.1-1.1-0.6-1c-1.6,0.3-1.7-4-1.2-6c0.3-1.2,0.5-1.2,0.6-1.8c0.1-1.1-0.8-1.3-1.7-1.4
	s-1.6-0.2-1.9,0.8c-0.7,2.4,0.2,6.1,0.8,7.6C26.7,36.4,28.5,36.8,29.6,35.5z"/>
<path class="st1" d="M158.8,16.4c-1.6-0.4-3.4-0.4-4.9,1.1c-2,2-4.2,6.1-2.6,8.1c0.6,0.8,2.1,1.2,3.4,0.7c0.9-0.3,1.1-0.6,2.1-1.2
	c0.7-0.4-0.8-0.6-1.5-0.3c-2.4,1.1-1.8-1.7-1.8-1.7c2.3-0.4,5-1.5,6.1-3.3C160.1,18.9,160.3,16.9,158.8,16.4z M157.9,19.5
	c-0.5,0.9-3.2,2.2-4.2,2.3c0.4-1.4,1.3-2.6,2.4-3.5C157.4,17.5,158.5,18.5,157.9,19.5L157.9,19.5z"/>
<path class="st1" d="M92.6,14.4c-4.9-0.6-10.1-2-8.8-5.2c1.7-3.9,9.6-5.7,15.3-4.4c1,0.2,1-1.7,1.9-1.9c1.2-0.2,1.9-1.1,0.9-1.5
	c-5.2-2.2-13.4,0-16.8,2.6c-4.4,3.3-6.1,7.9-1.5,10.3c3.9,2.1,8.9,1.9,13.5,3.5c4.1,1.4,0.6,5-9,4.9c-2.5,0-5.5,3.4-2.3,3.5
	c2.2,0.1,10.2,0.4,14.5-2.8C105.1,19.7,102,15.6,92.6,14.4z"/>
<path class="st1" d="M56.1,19.1c-1.7-0.3-4.1,0.4-5.2,2.3c-1.4,2.5-1.5,7.2,0.9,8.3c1.2,0.6,2.6,0.4,3.6-0.4c0.8-0.7,0.9-1,1.8-1.9
	c0.6-0.7-1.1-0.2-1.6,0.3c-2.1,1.9-2.8-0.4-2.9-0.5c2.2-1.3,5-3.6,5.5-5.6C58.3,20.7,57.9,19.4,56.1,19.1z M56.3,22.2
	c-0.2,1-2.9,3.4-3.9,3.9c-0.1-1,0.3-2.9,1.3-4.1S56.6,21.1,56.3,22.2L56.3,22.2z"/>
<path class="st1" d="M112.2,14.2c-0.6,0.7-1.8,6.7-3.4,6.8c-2.4,0.1-0.8-5.7-1-6.9c-0.1-0.9-0.5-0.8-0.9-0.7
	c-0.6,0.1-1.2-0.3-1.7,0.4c-0.4,0.5-0.6,1.1-0.6,1.7c-0.1,1.1,0.1,3.4,0.2,5.5c0.1,4.1,4.4,3,5.2,2.7c0.2-0.1,0.5-0.2,0.7-0.3
	c1-0.6,1-0.7,1.4-0.6c0.5,0,0.6,0.8,1.5,0.9c0.5,0.1-0.1-0.1-0.7-2.3c-0.2-0.8-0.1-2.2-0.1-2.5c0.3-1.1,0.7-2.5,1.2-4.2
	C114.1,13.9,112.6,13.7,112.2,14.2z"/>
<path class="st1" d="M11.5,31.9c5.7-0.6,9.7-3.9,11.2-6.2c2.7-4.4-1-7.5-6.5-8.1c-4.3-0.5-12.4,1.8-15.8,6.3
	c-0.6,0.8-0.1,1.5,1.7,1.6c1.3,0.1,1.8,0.6,2.5-0.1c2.1-1.9,4.5-3.3,7.2-4.1c-0.9,2-2.1,5.4-3.6,11.3c-0.6,2.5-0.8,6.1-1.2,8.7
	c-0.2,1.9,0.7,2.9,2,3.7c0.6,0.4,1.2,1.4,2,1.5c1.2,0.3,0.9-1.3,0.7-2.9C11,39.7,11,35.8,11.5,31.9z M19.9,21.5
	c2.8,2.1-0.8,7.4-8.1,8c0.4-2.9,1-5.9,1.7-8.8C16,20.2,18.3,20.3,19.9,21.5L19.9,21.5z"/>
<path class="st1" d="M32.5,42.7c-0.6,1.1-1.7,2.3-3.4,2.5c-4.3,0.4-9.8-5.3-11.7-10.8c-0.3-0.9-4.5-1.7-4.4-0.7
	c0.8,5.6,6.8,11.5,10.9,13.1c5.1,2.1,9.9,1.1,9.6-4C33.4,40.1,33.4,41.2,32.5,42.7z"/>
<path class="st1" d="M108.9,44h1.6c0.8,0,1.3,0.4,1.3,1.1c0,0.5-0.3,0.9-0.8,1.1l1,1.3h-0.7l-0.9-1.2h-0.8v1.2h-0.6L108.9,44z
	 M110.5,45.7c0.4,0,0.7-0.2,0.7-0.6s-0.3-0.6-0.7-0.6h-0.9v1.2H110.5z"/>
<path class="st1" d="M113.4,44h2.6v0.5h-2v0.9h1.8V46H114v0.9h2v0.5h-2.7V44z"/>
<path class="st1" d="M117.3,47l0.4-0.4c0.3,0.3,0.7,0.4,1.1,0.5c0.4,0,0.6-0.2,0.6-0.4c0-0.3-0.1-0.4-0.8-0.5
	c-0.8-0.2-1.2-0.4-1.2-1c0-0.6,0.5-1,1.2-1c0.5,0,0.9,0.1,1.3,0.4l-0.3,0.5c-0.3-0.2-0.6-0.3-1-0.4c-0.4,0-0.6,0.2-0.6,0.4
	c0,0.2,0.2,0.4,0.8,0.5c0.7,0.2,1.1,0.4,1.1,1c0,0.7-0.5,1-1.3,1C118.2,47.5,117.7,47.3,117.3,47z"/>
<path class="st1" d="M121.4,45.7c0-1,0.8-1.8,1.8-1.8s1.9,0.8,1.9,1.8c0,1-0.8,1.8-1.8,1.8c0,0,0,0,0,0
	C122.2,47.5,121.4,46.8,121.4,45.7C121.4,45.8,121.4,45.7,121.4,45.7z M124.4,45.7c0-0.7-0.5-1.2-1.2-1.2c0,0,0,0,0,0
	c-0.7,0-1.2,0.5-1.2,1.2c0,0,0,0,0,0c0,0.7,0.5,1.2,1.2,1.2c0,0,0,0,0,0C123.9,47,124.4,46.4,124.4,45.7
	C124.4,45.8,124.4,45.7,124.4,45.7z"/>
<path class="st1" d="M126.6,44h1.6c0.8,0,1.3,0.4,1.3,1.1c0,0.5-0.3,0.9-0.8,1.1l1,1.3h-0.7l-0.9-1.2h-0.8v1.2h-0.6L126.6,44z
	 M128.1,45.7c0.4,0,0.7-0.2,0.7-0.6s-0.3-0.6-0.7-0.6h-0.9v1.2H128.1z"/>
<path class="st1" d="M131.9,44.6h-1.1V44h2.9v0.6h-1.1v2.9h-0.6V44.6z"/>
<path class="st1" d="M139.3,47.1c-0.3,0.3-0.7,0.4-1.1,0.5c-0.7,0-1.2-0.4-1.2-1c0-0.4,0.3-0.8,0.8-1c-0.2-0.2-0.3-0.5-0.3-0.7
	c0-0.5,0.4-0.9,1-0.9c0.5,0,0.9,0.3,0.9,0.8c0,0,0,0,0,0.1c0,0.5-0.3,0.7-0.8,0.9l0.6,0.6c0.1-0.2,0.3-0.4,0.4-0.7l0.5,0.2
	c-0.1,0.3-0.3,0.5-0.5,0.8l0.6,0.6l-0.5,0.3L139.3,47.1z M139,46.7l-0.8-0.8c-0.3,0.1-0.5,0.3-0.5,0.6c0,0.3,0.3,0.5,0.6,0.5
	c0,0,0,0,0,0C138.5,47,138.8,46.9,139,46.7L139,46.7z M138.9,44.8c0-0.2-0.2-0.4-0.4-0.4c0,0,0,0,0,0c-0.2,0-0.4,0.2-0.4,0.4
	c0,0,0,0,0,0c0,0.2,0.1,0.4,0.3,0.5C138.8,45.2,138.9,45.1,138.9,44.8L138.9,44.8z"/>
<path class="st1" d="M143.7,47l0.4-0.4c0.3,0.3,0.7,0.4,1.1,0.5c0.4,0,0.6-0.2,0.6-0.4c0-0.3-0.1-0.4-0.8-0.5
	c-0.8-0.2-1.2-0.4-1.2-1c0-0.6,0.5-1,1.2-1c0.5,0,0.9,0.1,1.3,0.4l-0.3,0.5c-0.3-0.2-0.6-0.3-1-0.4c-0.4,0-0.6,0.2-0.6,0.4
	c0,0.2,0.2,0.4,0.8,0.5c0.7,0.2,1.1,0.4,1.1,1c0,0.7-0.5,1-1.3,1C144.6,47.5,144.1,47.3,143.7,47z"/>
<path class="st1" d="M147.9,44h1.4c0.8,0,1.3,0.5,1.3,1.2c0,0.8-0.6,1.2-1.4,1.2h-0.7v1.1h-0.6L147.9,44z M149.2,45.8
	c0.5,0,0.8-0.3,0.8-0.6c0-0.4-0.3-0.6-0.8-0.6h-0.7v1.3L149.2,45.8z"/>
<path class="st1" d="M152.9,44h0.6l1.6,3.5h-0.7l-0.4-0.8h-1.7l-0.4,0.8h-0.6L152.9,44z M153.8,46.1l-0.6-1.4l-0.6,1.4H153.8z"/>
</svg>
